<mxfile host="app.diagrams.net" modified="2024-05-25T09:57:40.549Z" agent="Mozilla/5.0 (Windows NT 10.0; Win64; x64) AppleWebKit/537.36 (KHTML, like Gecko) Chrome/125.0.0.0 Safari/537.36" version="24.4.8" etag="6p2coBeFugBd4p7vTI9y" type="github">
  <diagram name="Page-1" id="lLabb3Eq8-kO3cuGg9Zh">
    <mxGraphModel>
      <root>
        <mxCell id="0" />
        <mxCell id="1" parent="0" />
      </root>
    </mxGraphModel>
  </diagram>
</mxfile>
